<svg id="圖層_1" data-name="圖層 1" xmlns="http://www.w3.org/2000/svg" viewBox="0 0 315.03 80.37"><defs><style>.cls-1{fill:#ff9e1b;}.cls-2{fill:#fff;opacity:0.9;}</style></defs><polygon class="cls-1" points="315.03 21.81 315.03 69.59 304.25 80.37 20.43 80.37 20.43 21.81 315.03 21.81"/><path d="M52.54,40.34H45.68v-6H67.53v6H60.67V67.8H52.54Z"/><path d="M71.15,63.78V34.38h8.12V61.61l.86.86h3.71l.85-.86V34.38h8.13v29.4l-4.06,4H75.21Z"/><path d="M98.06,34.38H115.8v5.69h-9.61v8.58h8.71v6h-8.71V67.8H98.06Z"/><path d="M131.79,63.78V38.4l4.06-4h13.68l4,4v6.41h-8.13V40.57l-.81-.86h-3.84l-.85.86v21l.85.86h4.11l.81-.86v-7h-2.8v-5.1h10.93V63.78l-4,4h-14Z"/><path d="M173.78,59.67h-6.86L165.7,67.8H158l5.91-33.42h13.19L183,67.8h-8ZM173,54.12l-2.07-14.41h-1.13l-2.08,14.41Z"/><path d="M187.1,34.38H199l4.61,26h.27l4.56-26H220.2V67.8h-6.91V40.66H213L208,67.8h-9l-5-27.14h-.23V67.8H187.1Z"/><path d="M225.44,34.38h8.12V67.8h-8.12Z"/><path d="M238.8,34.38h9l7.63,23.12h.18V34.38h6.82V67.8h-9L245.8,45.09h-.18V67.8H238.8Z"/><path d="M267.75,63.78V38.4l4.06-4h13.68l4,4v6.41h-8.13V40.57l-.81-.86h-3.84l-.86.86v21l.86.86h4.11l.81-.86v-7h-2.8v-5.1h10.93V63.78l-4,4H271.81Z"/><polygon class="cls-2" points="3.68 0 11.11 7.28 3.68 14.78 0 14.78 7.27 7.28 0 0.01 3.68 0"/><polygon class="cls-2" points="12.21 0 19.64 7.28 12.21 14.78 8.53 14.78 15.8 7.28 8.53 0.01 12.21 0"/><polygon class="cls-2" points="20.74 0 28.17 7.28 20.74 14.78 17.06 14.78 24.33 7.28 17.06 0.01 20.74 0"/></svg>