<?xml version="1.0" encoding="UTF-8"?>
<svg id="OBJECTS" xmlns="http://www.w3.org/2000/svg" viewBox="0 0 214.5 231.29">
  <defs>
    <style>
      .cls-1 {
        letter-spacing: .3em;
      }

      .cls-2 {
        fill: #fff;
      }

      .cls-3 {
        letter-spacing: .06em;
      }

      .cls-4 {
        letter-spacing: .03em;
      }

      .cls-5 {
        fill: #ffb000;
      }

      .cls-6, .cls-7, .cls-8 {
        fill: #333;
      }

      .cls-9 {
        letter-spacing: .02em;
      }

      .cls-10 {
        letter-spacing: .06em;
      }

      .cls-7 {
        font-family: Montserrat-Regular, Montserrat;
        font-size: 15.11px;
      }

      .cls-8 {
        font-family: Montserrat-ExtraBold, 'Montserrat ExtraBold';
        font-size: 32.62px;
        font-weight: 700;
      }

      .cls-11 {
        letter-spacing: .25em;
      }
    </style>
  </defs>
  <g>
    <text class="cls-8" transform="translate(0 202.66)"><tspan class="cls-3" x="0" y="0">LAP</tspan><tspan class="cls-4" x="58.58" y="0">T</tspan><tspan class="cls-3" x="75.87" y="0">OP</tspan><tspan x="119.61" y="0"> </tspan><tspan class="cls-9" x="126.53" y="0">L</tspan><tspan class="cls-10" x="142.61" y="0">OGO</tspan></text>
    <text class="cls-7" transform="translate(24.19 227.52)"><tspan class="cls-11" x="0" y="0">T</tspan><tspan class="cls-1" x="12.83" y="0">AGLINE HERE</tspan></text>
  </g>
  <g>
    <g>
      <path class="cls-5" d="m186.69,117.66H26.76L1.86,142.34c-3.41,3.38-1.02,9.2,3.79,9.2h202.15c4.8,0,7.2-5.82,3.79-9.2l-24.9-24.67Z"/>
      <path class="cls-6" d="m.26,157.55h212.92c0,3.79-3.08,6.87-6.87,6.87H7.13c-3.79,0-6.87-3.08-6.87-6.87H.26Z"/>
      <g>
        <polygon class="cls-2" points="111.83 127.56 101.62 127.56 101.31 132.33 112.14 132.33 111.83 127.56"/>
        <polygon class="cls-2" points="48.03 127.56 38.07 127.56 33.93 132.33 44.63 132.33 48.03 127.56"/>
        <polygon class="cls-2" points="101.73 125.77 111.71 125.77 111.45 121.76 101.99 121.76 101.73 125.77"/>
        <polygon class="cls-2" points="86.67 127.56 75.06 127.56 73.15 132.33 85.57 132.33 86.67 127.56"/>
        <polygon class="cls-2" points="151.28 127.56 140.32 127.56 142.23 132.33 153.97 132.33 151.28 127.56"/>
        <polygon class="cls-2" points="124.93 127.56 113.63 127.56 113.93 132.33 126.03 132.33 124.93 127.56"/>
        <polygon class="cls-2" points="46.83 132.33 57.42 132.33 60.11 127.56 50.23 127.56 46.83 132.33"/>
        <polygon class="cls-2" points="163.21 127.56 153.34 127.56 156.02 132.33 166.62 132.33 163.21 127.56"/>
        <polygon class="cls-2" points="138.39 127.56 126.77 127.56 127.87 132.33 140.3 132.33 138.39 127.56"/>
        <polygon class="cls-2" points="99.82 127.56 88.51 127.56 87.41 132.33 99.51 132.33 99.82 127.56"/>
        <polygon class="cls-2" points="124.52 125.77 123.6 121.76 113.25 121.76 113.51 125.77 124.52 125.77"/>
        <polygon class="cls-2" points="137.67 125.77 136.07 121.76 125.44 121.76 126.36 125.77 137.67 125.77"/>
        <polygon class="cls-2" points="22.1 132.33 31.56 132.33 35.7 127.56 26.92 127.56 22.1 132.33"/>
        <polygon class="cls-2" points="150.27 125.77 148.01 121.76 138 121.76 139.6 125.77 150.27 125.77"/>
        <polygon class="cls-2" points="161.93 125.77 159.07 121.76 150.07 121.76 152.33 125.77 161.93 125.77"/>
        <polygon class="cls-2" points="168.82 132.33 179.51 132.33 175.37 127.56 165.41 127.56 168.82 132.33"/>
        <polygon class="cls-2" points="73.13 127.56 62.17 127.56 59.48 132.33 71.22 132.33 73.13 127.56"/>
        <polygon class="cls-2" points="181.89 132.33 191.34 132.33 186.53 127.56 177.75 127.56 181.89 132.33"/>
        <polygon class="cls-2" points="173.82 125.77 170.34 121.76 161.27 121.76 164.13 125.77 173.82 125.77"/>
        <polygon class="cls-2" points="39.51 139.5 40.25 138.46 43.35 134.12 32.38 134.12 27.71 139.5 39.51 139.5"/>
        <polygon class="cls-2" points="154.98 134.12 142.95 134.12 144.83 138.83 145.1 139.5 158.01 139.5 154.98 134.12"/>
        <polygon class="cls-2" points="167.9 134.12 157.03 134.12 159.57 138.62 160.06 139.5 171.74 139.5 167.9 134.12"/>
        <polygon class="cls-2" points="141.02 134.12 128.28 134.12 129.43 139.1 129.52 139.5 143.17 139.5 141.02 134.12"/>
        <polygon class="cls-2" points="181.07 134.12 170.1 134.12 173.2 138.46 173.94 139.5 185.74 139.5 181.07 134.12"/>
        <polygon class="cls-2" points="37.25 125.77 40.73 121.76 32.77 121.76 28.72 125.77 37.25 125.77"/>
        <polygon class="cls-2" points="26.36 138.32 30 134.12 20.3 134.12 14.87 139.5 25.34 139.5 26.36 138.32"/>
        <polygon class="cls-2" points="126.44 134.12 114.05 134.12 114.39 139.38 114.4 139.5 127.68 139.5 126.44 134.12"/>
        <polygon class="cls-2" points="176.19 125.77 184.72 125.77 180.68 121.76 172.71 121.76 176.19 125.77"/>
        <polygon class="cls-2" points="193.15 134.12 183.44 134.12 187.09 138.32 188.11 139.5 198.58 139.5 193.15 134.12"/>
        <polygon class="cls-2" points="51.52 125.77 61.12 125.77 63.37 121.76 54.38 121.76 51.52 125.77"/>
        <polygon class="cls-2" points="88.92 125.77 99.94 125.77 100.19 121.76 89.85 121.76 88.92 125.77"/>
        <polygon class="cls-2" points="39.63 125.77 49.31 125.77 52.17 121.76 43.1 121.76 39.63 125.77"/>
        <polygon class="cls-2" points="63.18 125.77 73.84 125.77 75.45 121.76 65.43 121.76 63.18 125.77"/>
        <polygon class="cls-2" points="75.77 125.77 87.09 125.77 88.01 121.76 77.38 121.76 75.77 125.77"/>
        <polygon class="cls-2" points="84.02 139.1 85.16 134.12 72.43 134.12 70.28 139.5 83.92 139.5 84.02 139.1"/>
        <polygon class="cls-2" points="53.88 138.62 56.41 134.12 45.55 134.12 41.71 139.5 53.38 139.5 53.88 138.62"/>
        <polygon class="cls-2" points="112.25 134.12 101.19 134.12 100.85 139.5 112.6 139.5 112.25 134.12"/>
        <polygon class="cls-2" points="99.06 139.38 99.4 134.12 87 134.12 85.76 139.5 99.05 139.5 99.06 139.38"/>
        <polygon class="cls-2" points="68.61 138.83 70.5 134.12 58.47 134.12 55.44 139.5 68.35 139.5 68.61 138.83"/>
      </g>
    </g>
    <g>
      <path class="cls-6" d="m180.87,0h-39.2c-1.6,0-3.13.63-4.26,1.77l-12.06,12.06c-1.13,1.13-2.66,1.77-4.26,1.77h-37.37l10.65,10.65c1.13,1.13,2.66,1.77,4.26,1.77h82.23c3.33,0,6.03,2.7,6.03,6.03V6.02c0-3.33-2.7-6.02-6.02-6.02Z"/>
      <path class="cls-5" d="m180.87,110.51H32.58c-3.33,0-6.02-2.7-6.02-6.02V15.3c0-3.33,2.7-6.02,6.02-6.02h43.64c1.6,0,3.13.63,4.26,1.76l12.06,12.06c1.13,1.13,2.66,1.76,4.26,1.76h84.08c3.33,0,6.02,2.7,6.02,6.02v73.6c0,3.33-2.7,6.02-6.02,6.02Z"/>
    </g>
  </g>
</svg>